Coordinates
version=1
nRows=48
nColumns=11
inDegrees=yes

Units are S.I. units (second, meters, Newtons, ...)
If the header above contains a line with 'inDegrees', this indicates whether rotational values are in degrees (yes) or radians (no).

endheader
time	pelvis_tilt	pelvis_tx	pelvis_ty	hip_flexion_l	hip_flexion_r	knee_angle_l	knee_angle_r	ankle_angle_l	ankle_angle_r	lumbar_extension
      3.20000000	     -1.12320491	      0.98771355	      0.92650269	     10.55557806	     25.26419998	    -27.21042170	    -48.59729527	     13.70496545	     -8.44763320	     -6.13523822
      3.21000000	     -0.48369653	      0.99838146	      0.92556595	      9.24211887	     25.65911380	    -27.46573563	    -47.42881084	     14.55092475	     -8.26545507	     -6.84827141
      3.22000000	      0.17673598	      1.00906666	      0.92437870	      7.94636272	     25.90910702	    -27.81549379	    -46.04266294	     15.43401734	     -8.12998909	     -7.58712744
      3.23000000	      0.87134584	      1.01990268	      0.92302573	      6.63262774	     26.01535775	    -28.21947046	    -44.45189001	     16.33390562	     -7.83130800	     -8.35357993
      3.24000000	      1.54420108	      1.03090762	      0.92147636	      5.30279771	     26.01749314	    -28.56141688	    -42.64063318	     17.17442500	     -7.73785650	     -9.06865565
      3.25000000	      2.29592978	      1.04210671	      0.91978079	      3.93371078	     25.83421082	    -29.03515852	    -40.68355675	     18.06365092	     -7.54013510	     -9.86224675
      3.26000000	      3.00231943	      1.05340050	      0.91788863	      2.63681106	     25.53990844	    -29.56915849	    -38.45884809	     18.94468661	     -7.44183943	    -10.59903381
      3.27000000	      3.66381968	      1.06476150	      0.91575825	      1.40176901	     25.20880519	    -30.11091453	    -36.10086209	     19.78488067	     -7.27508496	    -11.27322138
      3.28000000	      4.33551846	      1.07640566	      0.91358701	      0.10588352	     24.69903952	    -30.65404967	    -33.52044777	     20.66888974	     -7.18098601	    -11.93801141
      3.29000000	      4.91949213	      1.08823384	      0.91131523	     -1.14150094	     24.18087227	    -31.14492963	    -30.83513383	     21.48420098	     -7.02403642	    -12.47926443
      3.30000000	      5.41860673	      1.10016914	      0.90894675	     -2.35844112	     23.63508033	    -31.51406536	    -28.05414219	     22.21925107	     -6.78563172	    -12.91707045
      3.31000000	      5.84005402	      1.11239343	      0.90659435	     -3.54527983	     23.07854231	    -31.81179253	    -25.27939823	     22.79127222	     -6.53482401	    -13.25012678
      3.32000000	      6.12000080	      1.12473592	      0.90428924	     -4.59542219	     22.62936381	    -32.07594591	    -22.64609085	     23.19925387	     -6.40230728	    -13.40831477
      3.33000000	      6.29873500	      1.13731595	      0.90202910	     -5.59502845	     22.25199760	    -32.27723217	    -20.28307415	     23.48156983	     -6.30341685	    -13.41736378
      3.34000000	      6.39299127	      1.15004423	      0.89987612	     -6.51192061	     21.98695931	    -32.46298254	    -18.31604682	     23.56508770	     -6.27745702	    -13.32790451
      3.35000000	      6.39678959	      1.16303773	      0.89792233	     -7.28147750	     21.80830916	    -32.71757501	    -16.78583713	     23.43549099	     -6.38777166	    -13.09629276
      3.36000000	      6.25615918	      1.17605030	      0.89606848	     -7.84672380	     21.85510662	    -33.04399368	    -15.85741275	     23.08449442	     -6.64210114	    -12.71532224
      3.37000000	      5.99875738	      1.18931564	      0.89426984	     -8.24363189	     22.02165583	    -33.43747981	    -15.48207773	     22.51673414	     -6.75925543	    -12.17663473
      3.38000000	      5.69935843	      1.20279090	      0.89258962	     -8.47334531	     22.17065228	    -34.04550975	    -15.50337327	     21.76564289	     -6.93076560	    -11.55561307
      3.39000000	      5.42567850	      1.21667521	      0.89120991	     -8.69317309	     22.22499739	    -34.70887218	    -15.94272218	     20.60877048	     -6.98093681	    -10.93248668
      3.40000000	      5.12468271	      1.23091208	      0.88985842	     -8.79211391	     22.16901548	    -35.52659945	    -16.48330909	     19.25965952	     -7.10275590	    -10.23872882
      3.41000000	      4.84617837	      1.24529708	      0.88860220	     -8.82618014	     21.98898664	    -36.52873247	    -17.26924214	     17.71964215	     -7.37412587	     -9.55416904
      3.42000000	      4.34919332	      1.25932004	      0.88770017	     -8.46659969	     22.24338587	    -37.65047819	    -18.38681978	     15.72308444	     -8.86266947	     -8.69743200
      3.43000000	      3.75134700	      1.27316269	      0.88689343	     -7.80960847	     23.06208002	    -38.98196253	    -20.46247728	     13.42036989	     -7.51461798	     -7.76037766
      3.44000000	      3.27069971	      1.28709005	      0.88637052	     -7.13822841	     23.96826835	    -40.46025774	    -22.86048398	     10.66131520	     -6.35276915	     -6.93777353
      3.45000000	      3.00719022	      1.30104673	      0.88632537	     -6.51653468	     24.42777323	    -42.10521356	    -24.87145397	      7.39104803	     -5.83383611	     -6.37968529
      3.46000000	      2.91971315	      1.31487403	      0.88663310	     -5.90921422	     24.38740752	    -43.81921887	    -26.37722282	      3.65387423	     -4.61628358	     -6.05457193
      3.47000000	      2.90572128	      1.32853387	      0.88703991	     -5.21357628	     24.12126105	    -45.57761670	    -27.67897913	     -0.44293086	     -3.17102148	     -5.83563837
      3.48000000	      2.87182729	      1.34194786	      0.88743175	     -4.37599492	     23.79616945	    -47.30572696	    -28.81513780	     -4.77358845	     -1.74814402	     -5.62762790
      3.49000000	      2.81178908	      1.35503597	      0.88779168	     -3.36734575	     23.40452959	    -49.15667386	    -29.76145913	     -8.97407852	     -0.51239215	     -5.43995266
      3.50000000	      2.67839834	      1.36778109	      0.88811164	     -2.17232596	     23.02544860	    -51.03383114	    -30.57474227	    -13.12326020	      0.88540339	     -5.19617808
      3.51000000	      2.50834326	      1.38026583	      0.88841047	     -0.74690623	     22.63904621	    -53.23340481	    -31.21767650	    -16.30350745	      2.08222580	     -4.93618038
      3.52000000	      2.29384164	      1.39226890	      0.88876145	      0.89364683	     22.25392928	    -55.54292461	    -31.73211986	    -18.69350428	      3.18905904	     -4.68776332
      3.53000000	      2.07823092	      1.40399085	      0.88932602	      2.62244450	     21.75684439	    -57.87803630	    -32.00281754	    -19.25753645	      4.01938797	     -4.44009853
      3.54000000	      1.80813558	      1.41535669	      0.89001592	      4.50528105	     21.27756809	    -60.08038773	    -32.14884783	    -18.33540443	      4.83792399	     -4.16663932
      3.55000000	      1.56390451	      1.42661985	      0.89115963	      6.32045622	     20.60954395	    -61.94383777	    -31.97767039	    -16.06726850	      5.56209983	     -3.91463109
      3.56000000	      1.27626454	      1.43761627	      0.89254265	      8.26935749	     19.89724306	    -63.59609527	    -31.58630862	    -13.60991691	      5.99636247	     -3.61784655
      3.57000000	      1.03288272	      1.44856156	      0.89428057	     10.14376561	     19.02260499	    -64.81290467	    -30.96868574	    -11.77645320	      6.38939253	     -3.37415056
      3.58000000	      0.76880200	      1.45924105	      0.89623750	     12.04436605	     18.13577460	    -65.69739701	    -30.25234444	    -10.30342873	      6.64024707	     -3.10499571
      3.59000000	      0.53057949	      1.46975625	      0.89827614	     13.89249715	     17.19032485	    -66.29105180	    -29.42441538	     -9.11904071	      6.75997669	     -2.88035978
      3.60000000	      0.37186784	      1.48018478	      0.90050457	     15.59029482	     16.13941035	    -66.56196468	    -28.53306422	     -8.04839673	      6.75964058	     -2.76024804
      3.61000000	      0.27470036	      1.49055762	      0.90286772	     17.18727714	     14.99897457	    -66.55133264	    -27.60759831	     -7.15483140	      6.70021952	     -2.68878109
      3.62000000	      0.12652763	      1.50049172	      0.90499910	     18.83192307	     14.00265555	    -66.30318562	    -26.75450160	     -6.38379794	      6.58899205	     -2.63481398
      3.63000000	      0.02645703	      1.51039497	      0.90714623	     20.34572800	     12.97712004	    -65.77133350	    -25.91032260	     -5.54546327	      6.33132207	     -2.63274915
      3.64000000	      0.00039136	      1.52011556	      0.90919906	     21.76202023	     11.93062069	    -65.08234979	    -25.14702183	     -4.75398272	      6.12087561	     -2.75861735
      3.65000000	     -0.07373693	      1.52966966	      0.91108418	     23.17233554	     11.02015269	    -64.17624739	    -24.51533229	     -3.95794245	      5.84928062	     -2.83261511
      3.66000000	     -0.16926031	      1.53902593	      0.91273372	     24.55760734	     10.18993080	    -63.04768849	    -23.95321735	     -3.22661664	      5.58322538	     -2.93103746
      3.67000000	     -0.16907092	      1.54841423	      0.91429515	     25.77732980	      9.30456365	    -61.76240865	    -23.47025793	     -2.36749460	      5.26788697	     -3.11326070
